<?xml version="1.0" standalone="no"?>
<!DOCTYPE svg PUBLIC "-//W3C//DTD SVG 20010904//EN"
 "http://www.w3.org/TR/2001/REC-SVG-20010904/DTD/svg10.dtd">
<svg version="1.0" xmlns="http://www.w3.org/2000/svg"
 width="853.000000pt" height="286.000000pt" viewBox="0 0 853.000000 286.000000"
 preserveAspectRatio="xMidYMid meet">

<g transform="translate(0.000000,286.000000) scale(0.100000,-0.100000)"
fill="#000000" stroke="none">
<path d="M7225 2419 c14 -6 5 -8 -30 -4 -38 5 -46 3 -35 -5 12 -9 9 -10 -13
-5 -21 4 -27 3 -21 -6 5 -9 2 -10 -11 -5 -23 9 -57 -2 -49 -16 5 -7 1 -9 -9
-5 -9 3 -18 0 -21 -9 -3 -8 -11 -14 -18 -14 -9 0 -8 3 2 10 8 5 10 10 4 10 -5
0 -19 -7 -30 -16 -10 -8 -12 -13 -4 -9 8 4 4 -3 -10 -14 -14 -11 -30 -19 -36
-17 -7 3 -36 -18 -65 -45 -30 -28 -48 -48 -41 -44 22 11 13 -11 -15 -36 l-28
-24 20 25 20 25 -21 -18 c-33 -27 -85 -132 -77 -153 5 -12 3 -15 -6 -9 -10 6
-11 2 -6 -15 5 -17 4 -20 -5 -15 -10 6 -11 1 -6 -19 5 -19 3 -26 -4 -21 -8 5
-10 -7 -6 -41 4 -34 3 -43 -3 -29 -7 14 -10 -1 -10 -55 0 -55 3 -70 10 -55 7
15 8 9 4 -23 -6 -49 3 -95 17 -86 6 4 7 -2 3 -16 -5 -17 -4 -21 6 -15 9 6 11
3 6 -8 -7 -20 2 -49 13 -42 4 2 12 -7 19 -21 8 -19 8 -24 0 -18 -30 18 116
-178 164 -221 16 -14 -10 21 -66 90 l-49 60 55 -60 c60 -65 100 -123 76 -111
-8 4 -3 -2 11 -14 14 -12 19 -19 12 -15 -10 5 -10 1 -1 -19 7 -14 15 -23 19
-21 11 7 20 -22 13 -42 -4 -11 -3 -14 6 -9 9 6 10 0 5 -20 -5 -19 -4 -25 5
-20 9 6 10 0 5 -20 -5 -21 -4 -25 6 -19 10 6 12 4 7 -8 -9 -25 2 -46 34 -62
22 -12 69 -15 231 -13 l203 2 -205 6 -205 6 218 1 c196 1 220 3 238 19 14 13
18 25 14 42 -4 17 -2 22 6 16 9 -5 10 2 6 27 -5 26 -4 30 4 19 8 -12 9 -9 4
13 -4 20 -2 27 6 22 8 -5 9 -1 4 15 -4 12 -3 20 2 17 4 -3 21 18 36 46 19 35
21 44 8 27 -11 -14 -21 -21 -21 -16 0 4 19 27 43 49 23 22 31 32 17 21 -20
-15 -18 -11 9 23 18 24 38 46 44 49 7 4 1 -6 -13 -22 l-25 -29 27 24 c15 13
24 29 22 35 -3 7 3 19 13 27 17 13 17 13 3 -6 -14 -18 -14 -19 2 -7 9 8 15 19
13 25 -3 7 5 23 16 37 11 14 18 19 14 13 -3 -7 -4 -13 -1 -13 3 0 10 10 17 21
8 15 8 19 0 15 -8 -5 -8 0 0 18 7 14 15 23 19 21 11 -7 20 22 13 42 -5 11 -3
14 6 8 10 -6 11 -2 6 15 -5 16 -4 20 5 15 9 -6 10 1 5 26 -3 19 -3 29 2 22 4
-6 8 44 8 112 0 70 -4 121 -9 118 -5 -4 -6 6 -2 21 5 20 3 26 -5 21 -8 -5 -9
-1 -4 15 5 16 4 20 -5 15 -9 -5 -10 -1 -5 15 4 14 3 20 -3 16 -12 -7 -25 22
-15 36 4 7 1 8 -7 3 -10 -6 -12 -4 -7 9 5 11 3 15 -5 10 -7 -5 -9 -2 -5 9 3 9
-3 26 -14 39 l-20 23 17 -30 16 -30 -21 25 c-11 14 -19 30 -17 35 5 15 -94
114 -109 109 -6 -3 -18 3 -26 13 -13 17 -13 17 6 3 18 -14 19 -13 8 1 -21 27
-109 70 -129 62 -12 -5 -15 -3 -9 6 6 10 2 11 -15 6 -17 -5 -21 -4 -15 6 6 9
3 11 -9 6 -22 -9 -68 2 -60 14 3 5 -17 7 -43 4 -36 -4 -42 -2 -23 4 18 7 2 9
-60 9 -60 1 -79 -2 -65 -9z m100 -60 c-15 -7 -6 -8 33 -6 28 2 52 0 52 -5 0
-5 10 -6 21 -3 16 5 19 4 14 -5 -5 -9 -1 -10 15 -5 17 5 21 4 15 -6 -6 -9 -3
-11 9 -6 16 6 96 -26 96 -39 0 -3 -4 -2 -10 1 -24 15 -7 -4 18 -21 26 -17 27
-17 12 1 -30 38 43 -20 96 -77 49 -52 88 -108 65 -94 -8 5 -8 0 0 -18 7 -14
16 -23 20 -20 5 3 6 -3 2 -12 -4 -12 -3 -15 5 -10 8 5 10 2 6 -8 -3 -9 -1 -16
6 -16 6 0 9 -4 6 -9 -3 -5 -3 -23 0 -41 4 -17 10 -27 13 -22 3 6 6 -41 6 -103
0 -62 -3 -109 -6 -103 -9 14 -20 -48 -12 -69 4 -10 2 -14 -4 -10 -13 8 -26
-20 -16 -35 3 -6 2 -8 -4 -5 -6 4 -15 -5 -22 -19 -9 -20 -9 -24 1 -18 17 11
-15 -40 -61 -95 -46 -55 -79 -92 -66 -71 9 13 8 13 -7 2 -9 -8 -15 -19 -13
-25 3 -7 -5 -23 -16 -37 -11 -14 -18 -19 -14 -12 3 6 4 12 1 12 -3 0 -10 -10
-17 -21 -7 -15 -8 -19 0 -15 7 5 9 1 5 -8 -3 -9 -10 -14 -14 -11 -11 7 -20
-22 -13 -42 4 -10 2 -14 -4 -10 -15 9 -24 -19 -17 -51 5 -22 3 -24 -6 -12 -9
12 -11 8 -6 -18 4 -23 2 -31 -6 -26 -7 5 -9 2 -5 -9 4 -12 2 -14 -10 -10 -9 4
-14 2 -11 -3 4 -5 -30 -9 -80 -9 l-87 0 2 65 c1 52 0 58 -7 30 -6 -30 -8 -25
-9 32 -2 107 -16 86 -16 -24 l0 -100 -87 -1 c-50 -1 -84 2 -80 7 3 5 -2 7 -11
3 -17 -6 -21 2 -17 37 1 12 -3 16 -10 11 -9 -6 -10 1 -5 25 6 25 4 31 -6 25
-9 -6 -11 -3 -6 8 7 19 -1 49 -12 42 -4 -2 -15 12 -25 31 -9 20 -11 32 -5 28
8 -5 8 -1 0 15 -7 11 -14 21 -17 21 -3 0 -2 -4 1 -10 15 -24 -4 -7 -21 18 -17
26 -17 27 1 12 16 -12 15 -9 -3 17 -13 18 -28 36 -35 39 -7 4 -3 -3 8 -17 l20
-24 -23 19 c-12 11 -21 25 -18 32 2 6 -10 25 -27 40 l-32 29 29 -32 c17 -18
26 -33 22 -33 -12 0 -51 53 -48 66 1 6 -6 18 -15 25 -17 13 -17 13 -3 -6 14
-18 14 -19 -2 -7 -9 8 -15 19 -12 27 3 7 0 16 -7 21 -8 4 -10 3 -5 -4 4 -7 5
-12 2 -12 -3 0 -10 10 -17 21 -8 15 -8 19 0 15 8 -5 8 0 0 18 -7 14 -15 23
-19 21 -11 -7 -20 22 -13 42 5 11 3 14 -6 8 -10 -6 -12 0 -6 26 3 19 3 29 -2
22 -4 -6 -8 42 -8 107 0 66 4 113 8 107 5 -7 6 2 3 21 -4 23 -2 31 6 26 8 -5
9 -2 5 9 -7 19 1 49 12 42 4 -2 15 12 25 31 9 20 11 32 5 28 -27 -16 19 46 75
102 58 58 118 102 101 74 -6 -9 -2 -9 14 -1 22 12 30 27 9 16 -7 -4 -4 1 7 9
11 9 25 14 32 12 18 -7 44 4 37 16 -4 6 2 7 16 3 16 -5 20 -4 15 4 -5 8 1 10
21 5 18 -5 25 -3 20 4 -5 8 9 10 46 6 38 -3 47 -2 33 5 -15 7 -7 10 35 10 42
0 50 -3 35 -10z m-385 -53 c0 -2 -8 -10 -17 -17 -16 -13 -17 -12 -4 4 13 16
21 21 21 13z m785 -66 c27 -27 47 -50 44 -50 -3 0 -27 23 -54 50 -27 28 -47
50 -44 50 3 0 27 -22 54 -50z m-825 37 c0 -2 -12 -14 -27 -28 l-28 -24 24 28
c23 25 31 32 31 24z m-110 -137 c-6 -11 -13 -20 -16 -20 -2 0 0 9 6 20 6 11
13 20 16 20 2 0 0 -9 -6 -20z m-33 -332 c-2 -18 -4 -4 -4 32 0 36 2 50 4 33 2
-18 2 -48 0 -65z m1080 5 c-2 -16 -4 -5 -4 22 0 28 2 40 4 28 2 -13 2 -35 0
-50z m-296 -746 l-24 -22 19 27 c10 14 21 24 23 22 3 -3 -6 -15 -18 -27z
m-483 -2 c-3 -3 -9 2 -12 12 -6 14 -5 15 5 6 7 -7 10 -15 7 -18z"/>
<path d="M6969 2253 c-13 -16 -12 -17 4 -4 16 13 21 21 13 21 -2 0 -10 -8 -17
-17z"/>
<path d="M7670 2195 c30 -30 57 -55 59 -55 3 0 -19 25 -49 55 -30 30 -57 55
-59 55 -3 0 19 -25 49 -55z"/>
<path d="M6905 2198 l-40 -43 43 40 c39 36 47 45 39 45 -2 0 -21 -19 -42 -42z"/>
<path d="M6849 2133 c-13 -16 -12 -17 4 -4 16 13 21 21 13 21 -2 0 -10 -8 -17
-17z"/>
<path d="M7714 1523 c-15 -20 -23 -33 -16 -29 13 8 56 66 49 66 -3 0 -17 -17
-33 -37z"/>
<path d="M7659 1453 l-24 -28 28 24 c15 14 27 26 27 28 0 8 -8 1 -31 -24z"/>
<path d="M7272 1130 c0 -14 2 -19 5 -12 2 6 2 18 0 25 -3 6 -5 1 -5 -13z"/>
<path d="M120 1735 l0 -525 270 0 270 0 0 40 0 40 -220 0 -220 0 0 205 0 205
200 0 200 0 0 40 0 40 -200 0 -200 0 0 200 0 200 220 0 220 0 0 40 0 40 -270
0 -270 0 0 -525z"/>
<path d="M5040 1730 l0 -520 50 0 50 0 0 520 0 520 -50 0 -50 0 0 -520z"/>
<path d="M5580 1738 c-102 -276 -186 -507 -188 -515 -3 -9 10 -13 46 -13 l49
0 45 123 45 122 244 3 244 2 45 -122 45 -123 51 -3 52 -3 -134 363 c-74 200
-159 432 -190 516 l-56 152 -57 0 -56 0 -185 -502z m250 369 c0 -2 45 -126
100 -276 55 -150 100 -277 100 -282 0 -5 -88 -9 -211 -9 -165 0 -210 3 -207
13 117 324 205 557 211 557 4 0 7 -1 7 -3z"/>
<path d="M1240 2027 c-62 -18 -113 -50 -154 -100 l-36 -42 0 68 0 67 -50 0
-50 0 0 -405 0 -405 49 0 50 0 3 278 c3 257 5 280 24 322 45 97 122 144 234
144 131 1 214 -59 245 -179 11 -46 15 -117 15 -312 l0 -253 46 0 45 0 -3 298
c-3 285 -4 299 -26 348 -29 64 -92 126 -155 154 -60 27 -175 35 -237 17z"/>
<path d="M2248 2030 c-215 -36 -346 -241 -311 -485 26 -181 142 -303 319 -336
191 -35 367 61 434 236 9 25 9 25 -40 25 -49 0 -50 -1 -71 -45 -24 -51 -72
-97 -127 -122 -56 -25 -194 -23 -253 4 -89 40 -152 126 -165 227 l-7 46 343 0
342 0 -4 88 c-9 191 -124 328 -303 361 -65 12 -88 12 -157 1z m219 -111 c89
-42 143 -126 143 -220 l0 -39 -291 0 -292 0 7 46 c13 96 66 173 148 215 89 45
187 45 285 -2z"/>
<path d="M3268 2026 c-64 -17 -122 -58 -155 -108 l-28 -42 -3 72 -3 72 -44 0
-45 0 0 -405 0 -405 44 0 44 0 4 278 c3 257 5 280 24 323 35 75 128 129 221
129 l33 0 0 50 c0 57 -6 59 -92 36z"/>
<path d="M3860 2026 c-124 -27 -228 -113 -271 -224 -26 -68 -37 -214 -20 -290
45 -212 241 -344 447 -302 100 20 173 70 237 160 17 24 17 20 15 -130 -3 -150
-4 -157 -32 -208 -55 -99 -135 -137 -274 -130 -62 3 -99 10 -127 25 -45 24
-119 98 -130 132 -5 17 -14 21 -51 21 -52 0 -55 -9 -20 -78 51 -99 150 -164
281 -183 190 -29 363 60 427 220 23 55 23 63 26 519 l3 462 -51 0 -50 0 -1
-87 c0 -73 -2 -85 -12 -69 -52 85 -144 147 -241 165 -71 13 -85 13 -156 -3z
m213 -92 c63 -21 130 -83 164 -152 25 -51 28 -67 28 -162 0 -120 -16 -168 -80
-238 -57 -64 -123 -92 -215 -92 -92 0 -154 19 -207 64 -144 124 -144 408 1
532 21 18 57 40 80 48 55 20 171 20 229 0z"/>
<path d="M7893 1835 c0 -38 2 -53 4 -32 2 20 2 52 0 70 -2 17 -4 1 -4 -38z"/>
<path d="M4650 1323 c-37 -47 -4 -113 55 -113 39 0 68 30 68 70 0 68 -81 96
-123 43z"/>
<path d="M7118 963 c7 -3 16 -2 19 1 4 3 -2 6 -13 5 -11 0 -14 -3 -6 -6z"/>
<path d="M7173 963 c9 -2 25 -2 35 0 9 3 1 5 -18 5 -19 0 -27 -2 -17 -5z"/>
<path d="M7248 963 c12 -2 30 -2 40 0 9 3 -1 5 -23 4 -22 0 -30 -2 -17 -4z"/>
<path d="M7353 963 c26 -2 67 -2 90 0 23 2 2 3 -48 3 -49 0 -68 -1 -42 -3z"/>
<path d="M7081 927 c5 -16 4 -25 -2 -22 -5 4 -9 14 -10 23 0 11 -2 12 -6 4 -3
-7 1 -19 7 -27 10 -12 51 -15 231 -15 200 0 218 1 212 17 -5 11 -3 14 6 9 9
-6 12 -2 9 13 -3 22 -6 22 -229 24 l-226 2 8 -28z"/>
<path d="M2353 883 c-8 -21 -20 -46 -25 -56 -8 -16 -6 -18 13 -15 15 2 28 18
45 56 22 51 22 52 3 52 -14 0 -25 -12 -36 -37z"/>
<path d="M232 873 c-81 -40 -82 -152 -3 -192 20 -10 69 -28 108 -40 77 -23 93
-38 93 -90 0 -48 -39 -71 -119 -71 -36 0 -81 4 -99 9 -28 9 -32 7 -32 -10 0
-27 37 -39 121 -39 123 0 185 46 176 130 -7 60 -46 92 -144 119 -42 11 -84 28
-94 37 -29 26 -25 78 9 104 24 20 36 22 115 18 77 -4 87 -2 87 13 0 22 -29 29
-115 29 -44 0 -82 -6 -103 -17z"/>
<path d="M1500 665 l0 -225 145 0 c138 0 145 1 145 20 0 19 -7 20 -120 20
l-120 0 0 205 0 205 -25 0 -25 0 0 -225z"/>
<path d="M613 869 c-21 -21 -15 -28 21 -22 21 3 52 -1 78 -11 33 -13 50 -15
71 -7 44 17 33 36 -20 37 -27 1 -68 5 -93 9 -32 5 -49 3 -57 -6z"/>
<path d="M7137 823 c-3 -5 -4 -18 -3 -31 1 -23 2 -23 162 -25 l161 -2 -8 28
c-5 16 -4 25 2 22 5 -4 9 -14 10 -23 0 -11 2 -12 6 -4 3 7 -1 19 -7 27 -10 12
-43 15 -166 15 -84 0 -155 -3 -157 -7z"/>
<path d="M608 763 c-10 -2 -18 -12 -18 -21 0 -15 11 -17 83 -14 96 4 117 -7
117 -63 l0 -33 -96 -4 c-91 -3 -97 -5 -120 -31 -34 -40 -32 -90 5 -128 25 -25
37 -29 83 -29 34 0 68 7 92 19 38 20 38 20 43 0 3 -10 14 -19 25 -19 19 0 19
6 16 136 l-3 136 -33 29 c-30 27 -38 29 -105 28 -39 -1 -80 -3 -89 -6z m182
-202 c0 -56 -34 -81 -109 -81 -65 0 -81 11 -81 56 0 48 29 64 117 64 l73 0 0
-39z"/>
<path d="M992 750 c-42 -26 -62 -73 -62 -147 0 -110 52 -163 158 -163 74 0
116 22 142 74 39 83 16 201 -49 239 -42 25 -146 23 -189 -3z m175 -44 c26 -23
28 -29 28 -101 0 -72 -2 -78 -28 -101 -21 -17 -40 -24 -72 -24 -92 0 -120 36
-113 146 5 84 25 104 104 104 42 0 59 -5 81 -24z"/>
<path d="M1870 645 c0 -75 5 -134 12 -150 25 -55 120 -72 193 -35 22 11 41 20
42 20 2 0 3 -9 3 -20 0 -13 7 -20 20 -20 19 0 20 7 20 165 0 158 -1 165 -20
165 -19 0 -20 -7 -20 -123 0 -138 -4 -146 -71 -165 -43 -12 -87 -5 -111 16
-15 13 -18 34 -18 144 l0 128 -25 0 -25 0 0 -125z"/>
<path d="M2277 763 c-16 -15 -6 -33 18 -33 l25 0 0 -145 0 -145 25 0 25 0 0
165 0 165 -43 0 c-24 0 -47 -3 -50 -7z"/>
<path d="M2494 747 c-21 -19 -28 -33 -28 -62 0 -47 22 -66 109 -95 68 -23 91
-46 80 -80 -8 -26 -42 -34 -121 -27 -56 4 -64 3 -64 -13 0 -22 27 -30 105 -30
42 0 70 6 93 20 28 17 32 25 32 64 0 53 -23 76 -103 102 -59 19 -87 40 -87 64
0 32 26 42 100 38 66 -3 71 -2 68 17 -3 18 -12 20 -79 23 -69 3 -80 0 -105
-21z"/>
<path d="M7217 703 c-12 -12 14 -31 36 -26 15 3 18 2 9 -5 -9 -6 1 -9 31 -8
25 1 43 5 39 10 -3 5 3 6 14 2 10 -4 15 -4 11 0 -4 4 -2 13 4 21 9 11 -2 13
-63 13 -41 0 -78 -3 -81 -7z"/>
</g>
</svg>
